<svg xmlns="http://www.w3.org/2000/svg" viewBox="0 0 24 24" fill="none" stroke="#ffb700" stroke-linecap="round" stroke-linejoin="round" id="Circle-Dot-Dashed--Streamline-Lucide" height="24" width="24">
  <desc>
    Circle Dot Dashed Streamline Icon: https://streamlinehq.com
  </desc>
  <path d="M10.1 2.18a9.93 9.93 0 0 1 3.8 0" stroke-width="2"></path>
  <path d="M17.6 3.71a9.95 9.95 0 0 1 2.69 2.7" stroke-width="2"></path>
  <path d="M21.82 10.1a9.93 9.93 0 0 1 0 3.8" stroke-width="2"></path>
  <path d="M20.29 17.6a9.95 9.95 0 0 1 -2.7 2.69" stroke-width="2"></path>
  <path d="M13.9 21.82a9.94 9.94 0 0 1 -3.8 0" stroke-width="2"></path>
  <path d="M6.4 20.29a9.95 9.95 0 0 1 -2.69 -2.7" stroke-width="2"></path>
  <path d="M2.18 13.9a9.93 9.93 0 0 1 0 -3.8" stroke-width="2"></path>
  <path d="M3.71 6.4a9.95 9.95 0 0 1 2.7 -2.69" stroke-width="2"></path>
  <path d="M11 12a1 1 0 1 0 2 0 1 1 0 1 0 -2 0" stroke-width="2"></path>
</svg>