<svg xmlns="http://www.w3.org/2000/svg" xmlns:xlink="http://www.w3.org/1999/xlink" version="1.1" x="0px" y="0px" viewBox="0 0 100 125" style="enable-background:new 0 0 100 100;" xml:space="preserve"><path d="M37.77,15.01H14.05c-4.08,0-7.39,3.31-7.39,7.39v23.72c0,4.08,3.31,7.39,7.39,7.39h17.03  c-1.73,9.13-10.12,16.35-20.69,17.74c-2.11,0.28-3.72,2-3.72,4.13v5.45c0,2.45,2.11,4.42,4.55,4.15  c18.9-2.04,33.62-16.66,33.92-34.42c0.01-0.09,0.03-0.18,0.03-0.28V22.39C45.16,18.32,41.85,15.01,37.77,15.01z"/><path d="M85.95,15.01H62.23c-4.08,0-7.39,3.31-7.39,7.39v23.72c0,4.08,3.31,7.39,7.39,7.39h17.03  c-1.73,9.13-10.12,16.35-20.69,17.74c-2.11,0.28-3.72,2-3.72,4.13v5.45c0,2.45,2.11,4.42,4.55,4.15  c18.9-2.04,33.62-16.66,33.92-34.42c0.01-0.09,0.03-0.18,0.03-0.28V22.39C93.33,18.32,90.03,15.01,85.95,15.01z"/><text x="0" y="115" fill="#000000" font-size="5px" font-weight="bold" font-family="'Helvetica Neue', Helvetica, Arial-Unicode, Arial, Sans-serif">Created by NAPISAH</text><text x="0" y="120" fill="#000000" font-size="5px" font-weight="bold" font-family="'Helvetica Neue', Helvetica, Arial-Unicode, Arial, Sans-serif">from the Noun Project</text></svg>