<svg xmlns="http://www.w3.org/2000/svg" viewBox="0 0 100 125" style="enable-background:new 0 0 100 100" xml:space="preserve"><path d="M37.77 15.01H14.05c-4.08 0-7.39 3.31-7.39 7.39v23.72c0 4.08 3.31 7.39 7.39 7.39h17.03c-1.73 9.13-10.12 16.35-20.69 17.74-2.11.28-3.72 2-3.72 4.13v5.45c0 2.45 2.11 4.42 4.55 4.15 18.9-2.04 33.62-16.66 33.92-34.42.01-.09.03-.18.03-.28V22.39a7.405 7.405 0 0 0-7.4-7.38zm48.18 0H62.23c-4.08 0-7.39 3.31-7.39 7.39v23.72c0 4.08 3.31 7.39 7.39 7.39h17.03c-1.73 9.13-10.12 16.35-20.69 17.74-2.11.28-3.72 2-3.72 4.13v5.45c0 2.45 2.11 4.42 4.55 4.15 18.9-2.04 33.62-16.66 33.92-34.42.01-.09.03-.18.03-.28V22.39c-.02-4.07-3.32-7.38-7.4-7.38z"/><text y="115" font-size="5" font-weight="bold" font-family="'Helvetica Neue', Helvetica, Arial-Unicode, Arial, Sans-serif">Created by NAPISAH</text><text y="120" font-size="5" font-weight="bold" font-family="'Helvetica Neue', Helvetica, Arial-Unicode, Arial, Sans-serif">from the Noun Project</text></svg>